<svg xmlns="http://www.w3.org/2000/svg" viewBox="0 0 1080 346">
<g style="isolation:isolate">
<path d="M606,99.08h29.51c.44,0,.89.41,1.34,1.24V246.6c0,.41-.45.83-1.34,1.24H608.16q-3.24,0-15.65-17.71Q530,152,528.13,147.87V103.12a.82.82,0,0,1,.89-.83q73.11,92.4,75.23,94.37h.45V100.32C604.7,99.9,605.14,99.49,606,99.08Z" fill="#fff"/>
<path d="M724.07,99.18H753q3.36,0,7.16,10.77,1.34,1.88,65.5,136.23c-.23,1.11-1.42,1.66-3.58,1.66H794.05q-3.69,0-8-12.85-8.06-16.16-47.28-100.28h-.45q-38.34,82.79-53.43,112.72l-2.24.41H655a4.58,4.58,0,0,1-3.58-1.24q57-120.07,70.42-147Z" fill="#fff"/>
<path d="M874,99.39h-35.1c-.45,0-.89.41-1.34,1.24v26.11c0,.41.45.83,1.34,1.24h34.21q32.64,0,42.58,33.36a50.11,50.11,0,0,1,.9,8.49v7.25q0,24.76-24.37,38.13-7.71,3.61-18.67,3.62H838.93c-.45,0-.89.42-1.34,1.24V246.6c0,.41.45.83,1.34,1.24H874q44.26,0,67.29-41a83.28,83.28,0,0,0,7.38-33.35q0-45.37-43.82-68.06A88.65,88.65,0,0,0,874,99.39Z" fill="#fff"/>
<path d="M1016.84,99.59q-38.33,0-54.76,24.55a38.49,38.49,0,0,0-4.14,17.2q0,27.57,32.41,37.4,13.53,3.52,41.25,7,18.11,5.69,18.11,14.39v5.5q0,11.28-21.91,16c-2.68.21-5.22.31-7.6.31h-6.71q-25,0-36.21-19.89,0-.72-1.23-.72-21.13,10-24,12.12,6.48,17.08,26.15,27.25,17,7,39.12,7,44.26,0,59.36-28.49a46.09,46.09,0,0,0,3.35-16.78q0-37.2-53.09-43.72-39.12-3.1-39.13-15.95v-2q0-11.82,18.56-15.64a67,67,0,0,1,10.5-.73h.45q.57,0,1.23-1.14V100.73Q1018.52,99.8,1016.84,99.59Z" fill="#fff"/>
<rect x="477.54" y="98.15" width="27.15" height="150.09" fill="#e5281f"/>
<rect x="453.11" y="72.19" width="37.28" height="202.01" fill="#3c46bd"/>
<rect x="433.64" y="49.43" width="35.1" height="247.51" fill="#01a9b5"/>
<path d="M345.68,155.26c-.48-4.6-1.16-9.24-2-13.77-.34-1.83-.7-3.63-1.08-5.34-.82-3.78-1.79-7.61-2.88-11.38l-.31-1.06A174.23,174.23,0,0,0,333.5,107c-1.62-3.94-3.41-7.87-5.33-11.71-1.38-2.76-2.91-5.6-4.53-8.43s-3.32-5.61-5.1-8.33c-2-3-4-6-6.22-8.89-2.81-3.78-5.82-7.48-8.94-11-2.33-2.63-4.74-5.2-7.16-7.63-1.44-1.44-2.9-2.84-4.34-4.18-3.67-3.44-7.57-6.77-11.55-9.89l-.05,0c-2.9-2.28-5.9-4.48-8.91-6.54-1.67-1.15-3.32-2.24-4.91-3.25-1.08-.69-2.24-1.41-3.51-2.19-2.51-1.52-5.16-3-7.87-4.5a5.16,5.16,0,0,0-7.19,2.51l-2.43,5.67-5.31,12.37-.05.11-3.45,8-4.58,10.68-6.56,15.3L220,87.81,218.68,91l-3.79,8.82-8.5,19.8-.09.22-1,2.35L200,134.58l-1.92,4.49-6.16,14.34-1.66,3.88-10.32,24.05-1.41,3.28a5.16,5.16,0,0,0,4.74,7.19c.22,0,.44,0,.66,0l12.92-1.67,19.72-2.54.6-.08a5.14,5.14,0,0,0,4.08-3.08L232.11,159l1.34-3.13.35,0,5.51-.71,15.87-2,8.59-1.11,18.12-2.34L297,147.68l8.22-1.05A136.43,136.43,0,0,1,307.85,170a5.16,5.16,0,0,0,5.16,5,4.89,4.89,0,0,0,.66,0l3.18-.41,2.78-.35L342,171.37a5.15,5.15,0,0,0,4.49-5.32C346.33,162.47,346.07,158.84,345.68,155.26Zm-54.31-46.73-15.53,2-6.92.9-17.35,2.24.6-1.42,6.27-14.6,3-6.89,6-13.91a133.67,133.67,0,0,1,10.76,11.82c.66.82,1.19,1.5,1.68,2.15l0,0c1,1.25,1.91,2.51,2.79,3.75A131.25,131.25,0,0,1,291.37,108.53Z" fill="#e5281f"/>
<path d="M346.48,166a5.15,5.15,0,0,0-5.15-4.93c-.22,0-.44,0-.66,0L318.31,164l-2.77.35-3.19.42-28,3.61-2,.27-24.67,3.18-8.56,1.1A5.18,5.18,0,0,0,245,176l-13.39,31.22-6.37,14.84-7,16.37-1,2.46a.36.36,0,0,0,0,.09l-12,27.85-.35.81-3.53,8.23-9.86,23-3.71,8.65-2.62,6.09L178,332.11l-3,7.08a5.16,5.16,0,0,0,4.74,7.19h.2a176.26,176.26,0,0,0,25.1-2.82c3.15-.59,6.29-1.26,9.32-2,1.09-.27,2.1-.52,3.07-.78h.07a173.22,173.22,0,0,0,27.29-9.64l.09,0c2.68-1.21,5.37-2.5,8-3.84l.16-.09a171.22,171.22,0,0,0,44.69-33.26c1.06-1.08,2.15-2.25,3.35-3.56.77-.83,1.56-1.71,2.41-2.69a176,176,0,0,0,12.74-16.41c2.43-3.54,4.78-7.24,7-11A174.65,174.65,0,0,0,336.41,232s0-.08,0-.12c.42-1.16.85-2.4,1.35-3.89a170.66,170.66,0,0,0,7.3-31.35c.27-1.95.5-4,.7-6,.19-1.84.35-3.75.47-5.65a1.48,1.48,0,0,0,0-.21A169.4,169.4,0,0,0,346.48,166Zm-42.54,39.73c-.25,1.05-.53,2.08-.81,3.11a133.54,133.54,0,0,1-7,19.46,135.52,135.52,0,0,1-11.82,21c-1.85,2.69-3.8,5.32-5.8,7.82l0,0c-.53.68-1.08,1.35-1.63,2-2.65,3.19-5.43,6.24-8.27,9.08l-.11.12a133.15,133.15,0,0,1-30.25,22.69l9.28-21.64L252,259.05l.06-.13,5.31-12.37,3.56-8.3,12.23-28.51,8.35-1.08,22-2.84Z" fill="#3c46bd"/>
<path d="M230.84,11.38a5.2,5.2,0,0,0-3.07-2.78,171.45,171.45,0,0,0-25.33-6.31c-1.28-.22-2.61-.43-4.05-.65a6.44,6.44,0,0,0-.75,0,5.15,5.15,0,0,0-4.74,3.13l-.52,1.2L181.2,32,179,37.14l-4.26,9.91L169.39,59.5l-3.79,8.84-7.94,18.51-3,7-2.46,5.73-4.87,11.34L140,128.06l-19.06,2.46-2.3.3,2.8-6.54,7-16.37,1.09-2.55,12-27.85.34-.8,3.54-8.24,9.86-23,3.71-8.66,2.61-6.1,7.07-16.46,3-6.95a5.06,5.06,0,0,0,.48-2.16A5.16,5.16,0,0,0,167,0h-.28a175.71,175.71,0,0,0-25.06,2.82c-3.07.57-6.21,1.25-9.33,2-1,.25-2.08.52-3.09.78h0a173.31,173.31,0,0,0-27.3,9.65c-2.73,1.22-5.44,2.53-8.06,3.87A171.19,171.19,0,0,0,48.93,52.5c-1.09,1.13-2.18,2.29-3.33,3.54-.72.79-1.56,1.72-2.41,2.7a175.84,175.84,0,0,0-12.74,16.4c-2.43,3.55-4.78,7.25-7,11a175.26,175.26,0,0,0-13.28,28.39v0c-.38,1.06-.87,2.45-1.35,3.87a171.86,171.86,0,0,0-7.29,31.34c-.27,2-.51,4-.71,6s-.34,3.79-.47,5.71a174.86,174.86,0,0,0-.21,18.88c.15,3.58.42,7.21.81,10.77.47,4.54,1.14,9.18,2,13.77.34,1.83.7,3.63,1.08,5.34a5.15,5.15,0,0,0,5,4.05,4.87,4.87,0,0,0,.66,0l8-1,20.34-2.62a5.17,5.17,0,0,0,4.36-6.31,135.45,135.45,0,0,1-3.62-27.93c0-.88,0-1.78,0-2.79,0-1.32,0-2.66,0-4a135.81,135.81,0,0,1,2.36-21.94c.65-3.39,1.45-6.79,2.36-10.12a133.78,133.78,0,0,1,7-19.48A136.35,136.35,0,0,1,62.33,97c1.85-2.68,3.79-5.31,5.79-7.81l0,0c.54-.68,1.09-1.36,1.64-2,2.64-3.18,5.42-6.24,8.28-9.1A133.19,133.19,0,0,1,108.4,55.28L99.12,76.92,94.6,87.46,89.29,99.84l-3.56,8.3L72.34,139.35l-3.12,7.26L59,170.56a5.15,5.15,0,0,0,4.73,7.19,4.87,4.87,0,0,0,.66,0L89,174.52l8.55-1.1,1.09-.14,11.73-1.51,20.43-2.64.57-.08,19.74-2.54,12.93-1.67a5.14,5.14,0,0,0,4.07-3.08L173.19,150,181,131.78l.53-1.24,5.26-12.28,2.56-6a1.6,1.6,0,0,0,.1-.23l5.46-12.73,2.93-6.84,9-21,1.44-3.36.16-.37v0l11.15-26,2.08-4.85,5.22-12.19,3.95-9.19A5.17,5.17,0,0,0,230.84,11.38Z" fill="#01a9b5"/>
<path d="M216,177.29h-.27a3.68,3.68,0,0,0-.58.05l-19.64,2.53-12.92,1.67-4.92.64-24.1,3.1-4.21.55-15.5,2-17.74,2.29-3.28.42-5.49.71L91.47,193.3l-8.59,1.11-18.12,2.33-15.13,2L37,200.32l-.11,0-.17,0L16.4,203l-8,1a5.16,5.16,0,0,0-4.38,6.21c.82,3.78,1.79,7.61,2.88,11.38.1.36.2.72.31,1.07a173.37,173.37,0,0,0,5.92,16.77c1.59,3.89,3.38,7.83,5.32,11.69,1.44,2.87,3,5.71,4.53,8.43s3.32,5.62,5.11,8.35c1.93,3,4,6,6.2,8.88,2.79,3.74,5.8,7.44,9,11,2.34,2.65,4.76,5.22,7.18,7.63a5.11,5.11,0,0,0,3.64,1.51,4.87,4.87,0,0,0,.66,0l13.59-1.75L77.26,294l15.43-2,17.8-2.29,24.28-3.14-5.88,13.71a133,133,0,0,1-16.17-6.87,5.16,5.16,0,0,0-5,.22l-8.59,5.3L99,299,80.24,310.57a5.16,5.16,0,0,0-.07,8.73c1.11.71,2.26,1.43,3.53,2.2,2.55,1.55,5.2,3.06,7.88,4.5a172.47,172.47,0,0,0,20.17,9.22c2.41.93,4.81,1.78,7.13,2.56a171.12,171.12,0,0,0,25.21,6.29,5.36,5.36,0,0,0,1,.1,4.89,4.89,0,0,0,.66-.05l4.45-.58a5.13,5.13,0,0,0,4.07-3.08l11.19-26.07,2.21-5.14,4.25-9.91,5.34-12.46,3.76-8.74s0-.07,0-.11l7.94-18.5,3-7,2.46-5.73a5.15,5.15,0,0,0-4.74-7.19,4.87,4.87,0,0,0-.66,0L155.8,244l-16.71,2.16-.2,0-11.55,1.49-4.77.61-.21,0-23.91,3.08-.2,0-8.92,1.15-22.57,2.92c-.85-1.09-1.72-2.27-2.75-3.7a132.44,132.44,0,0,1-8.73-13.91l15.52-2,.21,0,6.71-.87L104,231.56l3.28-.43,11.33-1.46,14.83-1.91,3.8-.49L170.51,223,189,220.6l14.76-1.91a5.14,5.14,0,0,0,4.08-3.08l4.21-9.82,3.8-8.85.06-.14,3.87-9a4,4,0,0,0,.17-.44c0-.05,0-.09,0-.13.36-1.19.66-2.36.92-3.56a5.34,5.34,0,0,0,.14-1.21A5.15,5.15,0,0,0,216,177.29Z" fill="#fff"/>
</g>
</svg>